<svg width="23" height="22" viewBox="0 0 23 22" fill="none" xmlns="http://www.w3.org/2000/svg">
<path d="M6.53236 13.1308L5.16568 19.0488C5.12336 19.228 5.13607 19.4158 5.20214 19.5877C5.26821 19.7596 5.38457 19.9075 5.53603 20.0122C5.68749 20.1169 5.86701 20.1735 6.05114 20.1746C6.23526 20.1757 6.41544 20.1212 6.56813 20.0183L11.5625 16.6888L16.5568 20.0183C16.713 20.1221 16.8973 20.1755 17.0848 20.1714C17.2723 20.1673 17.454 20.1058 17.6056 19.9953C17.7571 19.8849 17.8712 19.7306 17.9324 19.5534C17.9937 19.3761 17.9992 19.1844 17.9483 19.0039L16.2706 13.1336L20.4312 9.38943C20.5645 9.26945 20.6596 9.11304 20.7049 8.93954C20.7502 8.76604 20.7437 8.58307 20.6861 8.41326C20.6285 8.24344 20.5224 8.09423 20.3809 7.98407C20.2395 7.87391 20.0688 7.80764 19.89 7.79344L14.6609 7.37702L12.3981 2.36801C12.3259 2.20671 12.2086 2.06975 12.0604 1.97365C11.9121 1.87755 11.7392 1.82641 11.5625 1.82641C11.3858 1.82641 11.2129 1.87755 11.0646 1.97365C10.9163 2.06975 10.799 2.20671 10.7269 2.36801L8.46405 7.37702L3.2349 7.79253C3.05921 7.80645 2.89125 7.87069 2.75111 7.97756C2.61097 8.08444 2.50459 8.22943 2.4447 8.39518C2.3848 8.56093 2.37393 8.74043 2.41338 8.9122C2.45283 9.08397 2.54092 9.24074 2.66714 9.36375L6.53236 13.1308ZM9.14923 9.16288C9.31295 9.14998 9.47019 9.09327 9.60445 8.9987C9.73872 8.90413 9.84508 8.77519 9.91237 8.62538L11.5625 4.97387L13.2126 8.62538C13.2799 8.77519 13.3862 8.90413 13.5205 8.9987C13.6548 9.09327 13.812 9.14998 13.9757 9.16288L17.619 9.4518L14.6187 12.1521C14.3582 12.387 14.2546 12.7483 14.3499 13.0859L15.4992 17.108L12.0725 14.8231C11.922 14.7222 11.745 14.6683 11.5638 14.6683C11.3827 14.6683 11.2057 14.7222 11.0552 14.8231L7.47436 17.2107L8.43746 13.0409C8.47277 12.8876 8.46803 12.7277 8.42369 12.5767C8.37936 12.4257 8.29692 12.2887 8.1843 12.1787L5.39774 9.46189L9.14923 9.16288Z" fill="#F3CD03"/>
</svg>
